
<svg version="1.0" xmlns="http://www.w3.org/2000/svg"
 width="2.000000pt" height="3.610619pt" viewBox="0 0 2.000000 3.610619"
 preserveAspectRatio="xMidYMid meet">

<g transform="translate(0.000000,3.610619) scale(0.001770,-0.001770)"
fill="#000000" stroke="none">
<path d="M295 2006 c-231 -73 -331 -256 -285 -522 21 -116 119 -321 222 -464
83 -115 213 -319 223 -350 4 -14 11 -83 15 -155 l6 -130 2 116 c1 76 -3 132
-12 163 -15 48 -118 218 -191 316 -110 145 -226 372 -251 491 -21 100 -15 237
15 303 47 107 133 179 264 222 39 13 63 23 52 23 -11 0 -38 -6 -60 -13z"/>
<path d="M941 280 c-75 -31 -104 -50 -150 -96 -31 -31 -67 -79 -81 -108 -29
-58 -69 -79 -116 -57 -30 13 -24 27 16 36 32 7 45 33 34 67 -4 12 -10 56 -15
98 l-8 75 4 -80 c2 -44 7 -92 11 -108 6 -24 3 -29 -30 -42 -45 -19 -77 -19
-123 0 l-36 15 6 53 c4 34 3 43 -3 27 -4 -14 -8 -39 -9 -57 -1 -35 11 -46 69
-58 19 -4 46 -16 59 -26 26 -21 81 -25 113 -8 11 6 30 34 43 62 34 78 48 87
178 106 165 25 267 87 211 128 -29 21 -73 14 -173 -27z m174 9 c12 -12 -8 -29
-69 -61 -34 -17 -223 -54 -232 -45 -11 11 55 53 137 87 93 40 138 45 164 19z"/>
</g>
</svg>
